<svg id="Laag_1" data-name="Laag 1" xmlns="http://www.w3.org/2000/svg" viewBox="0 0 77 77"><defs><style>.cls-1{fill:#059e9d;fill-rule:evenodd;}</style></defs><path class="cls-1" d="M38.36,75.52C18,75.52,1.48,58.69,1.48,38.35A36.91,36.91,0,0,1,38.36,1.48C58.69,1.48,75.52,18,75.52,38.35A37.41,37.41,0,0,1,38.36,75.52Zm.28-61a23.87,23.87,0,0,0,0,47.73A23.64,23.64,0,0,0,53.16,57.3a2.17,2.17,0,0,0-2.65-3.44,19.31,19.31,0,0,1-11.87,4,19.53,19.53,0,0,1,0-39.05c9.92,0,19.53,7.17,19.53,21.69a4.34,4.34,0,0,1-8.68,0V29.68a2.17,2.17,0,0,0-4.34,0v.05A10.84,10.84,0,1,0,46.74,45.5a8.67,8.67,0,0,0,15.77-5C62.51,23.33,50.63,14.49,38.64,14.49Zm0,30.37a6.51,6.51,0,1,1,6.51-6.51A6.51,6.51,0,0,1,38.64,44.86Z"/></svg>