<svg id="Laag_1" data-name="Laag 1" xmlns="http://www.w3.org/2000/svg" viewBox="0 0 77 77"><defs><style>.cls-1{fill:#1d1d1b;fill-rule:evenodd;}</style></defs><path class="cls-1" d="M71.53,42.4H65.22A8.41,8.41,0,0,1,51,42.4H5.46a3.9,3.9,0,1,1,0-7.8H51a8.41,8.41,0,0,1,14.26,0h6.31a3.9,3.9,0,1,1,0,7.8Zm0-17.42H31.16A8.41,8.41,0,0,1,16.9,25H5.46a3.9,3.9,0,1,1,0-7.8H16.9a8.41,8.41,0,0,1,14.26,0H71.53a3.9,3.9,0,1,1,0,7.8ZM5.46,52h25a8.41,8.41,0,0,1,14.26,0h26.8a3.9,3.9,0,1,1,0,7.8H44.73a8.41,8.41,0,0,1-14.26,0h-25a3.9,3.9,0,1,1,0-7.8Z"/></svg>