<svg id="Laag_1" data-name="Laag 1" xmlns="http://www.w3.org/2000/svg" viewBox="0 0 77 77"><defs><style>.cls-1{fill:#5b3289;}.cls-2{fill:#fff;fill-rule:evenodd;}</style></defs><circle class="cls-1" cx="38.5" cy="38.5" r="37.59"/><path class="cls-2" d="M63.41,41.49a3.91,3.91,0,0,1-1.86,2.87,3.85,3.85,0,0,1-3.34.31h0a1.91,1.91,0,0,0-2.39,1.07A17.44,17.44,0,0,1,54,48.81a1.9,1.9,0,0,0,.26,2.61,3.82,3.82,0,0,1,1.4,3.06,3.89,3.89,0,0,1-1.55,3,23.65,23.65,0,0,1-5.15,3,3.88,3.88,0,0,1-1.53.31,3.89,3.89,0,0,1-3.83-3.22,1.9,1.9,0,0,0-2.13-1.54,16.11,16.11,0,0,1-3.54,0,1.89,1.89,0,0,0-2.13,1.54,3.82,3.82,0,0,1-1.94,2.73,3.88,3.88,0,0,1-3.42.18,23.65,23.65,0,0,1-5.15-3,3.93,3.93,0,0,1-1.56-3,3.82,3.82,0,0,1,1.41-3,1.92,1.92,0,0,0,.26-2.62,18.08,18.08,0,0,1-1.77-3.08,1.9,1.9,0,0,0-2.39-1.07,3.83,3.83,0,0,1-3.35-.3,3.92,3.92,0,0,1-1.87-2.86,23.78,23.78,0,0,1,0-6,3.92,3.92,0,0,1,1.87-2.86,3.8,3.8,0,0,1,3.33-.3,1.92,1.92,0,0,0,2.41-1.07,17.49,17.49,0,0,1,1.78-3.08,1.9,1.9,0,0,0-.27-2.61,3.82,3.82,0,0,1-1.4-3.06,3.89,3.89,0,0,1,1.55-3,23.65,23.65,0,0,1,5.15-3,3.91,3.91,0,0,1,3.42.17,3.85,3.85,0,0,1,1.94,2.74A1.9,1.9,0,0,0,38,21a16,16,0,0,1,3.53,0,1.9,1.9,0,0,0,2.14-1.54,3.84,3.84,0,0,1,1.93-2.74A3.93,3.93,0,0,1,49,16.5a23.35,23.35,0,0,1,5.14,3,3.87,3.87,0,0,1,.16,6.09A1.9,1.9,0,0,0,54,28.18a17.89,17.89,0,0,1,1.77,3.09,1.91,1.91,0,0,0,2.39,1.07,3.86,3.86,0,0,1,3.36.3,3.91,3.91,0,0,1,1.86,2.86,23.35,23.35,0,0,1,.19,3A23.09,23.09,0,0,1,63.41,41.49Zm-2-5.73a1.92,1.92,0,0,0-.92-1.41,1.83,1.83,0,0,0-1.61-.15A3.9,3.9,0,0,1,54,32.08a15.15,15.15,0,0,0-1.58-2.73A3.88,3.88,0,0,1,53,24a1.86,1.86,0,0,0,.68-1.48,1.91,1.91,0,0,0-.77-1.5,22.11,22.11,0,0,0-4.71-2.72,1.92,1.92,0,0,0-1.7.08,1.84,1.84,0,0,0-.93,1.32,3.88,3.88,0,0,1-4.31,3.19,14.79,14.79,0,0,0-3.12,0,3.87,3.87,0,0,1-4.3-3.19,1.86,1.86,0,0,0-.94-1.32,1.9,1.9,0,0,0-1.69-.08,21.76,21.76,0,0,0-4.72,2.72,1.93,1.93,0,0,0-.76,1.5A1.85,1.85,0,0,0,26.43,24a3.87,3.87,0,0,1,.62,5.31,15.72,15.72,0,0,0-1.57,2.73,3.91,3.91,0,0,1-4.9,2.13,1.85,1.85,0,0,0-1.64.14A1.91,1.91,0,0,0,18,35.76a20.94,20.94,0,0,0,0,5.48,1.91,1.91,0,0,0,.91,1.41,1.83,1.83,0,0,0,1.61.15,3.92,3.92,0,0,1,4.93,2.11,15.53,15.53,0,0,0,1.57,2.74A3.88,3.88,0,0,1,26.43,53a1.86,1.86,0,0,0-.68,1.48,1.94,1.94,0,0,0,.77,1.49,21.57,21.57,0,0,0,4.72,2.73,2,2,0,0,0,1.69-.08,1.88,1.88,0,0,0,.94-1.32,3.85,3.85,0,0,1,4.3-3.19,14.79,14.79,0,0,0,3.12,0l.45,0a3.86,3.86,0,0,1,3.86,3.21,1.81,1.81,0,0,0,.93,1.32,1.9,1.9,0,0,0,1.69.08,21.53,21.53,0,0,0,4.72-2.72,1.91,1.91,0,0,0,.77-1.5A1.89,1.89,0,0,0,53,53a3.88,3.88,0,0,1-.62-5.31A15.15,15.15,0,0,0,54,44.92a3.91,3.91,0,0,1,4.89-2.13h0a1.83,1.83,0,0,0,1.63-.14,1.92,1.92,0,0,0,.92-1.41,22.17,22.17,0,0,0,0-5.48ZM39.73,48.45a10,10,0,1,1,10-10A10,10,0,0,1,39.73,48.45Zm0-17.91a8,8,0,1,0,8,8A8,8,0,0,0,39.73,30.54Z"/></svg>