<svg id="Laag_1" data-name="Laag 1" xmlns="http://www.w3.org/2000/svg" xmlns:xlink="http://www.w3.org/1999/xlink" viewBox="0 0 77 77"><defs><style>.cls-1{fill:none;}.cls-2{fill:#e50a53;}.cls-3{clip-path:url(#clip-path);}.cls-4{fill:#fff;fill-rule:evenodd;}</style><clipPath id="clip-path"><circle class="cls-1" cx="38.5" cy="38.5" r="37.59"/></clipPath></defs><circle class="cls-2" cx="38.5" cy="38.5" r="37.59"/><g class="cls-3"><path class="cls-4" d="M58.42,65.38v6a1,1,0,1,1-2,0v-6a8.49,8.49,0,0,0-8.49-8.5,6.29,6.29,0,0,1-5.4-3,1,1,0,1,1,1.75-1.07,4.22,4.22,0,0,0,3.65,2A10.54,10.54,0,0,1,58.42,65.38Zm-17-7.91-3.64,2.82-6.19-4.8a6.24,6.24,0,0,0,2.34-4.41A13.67,13.67,0,0,0,51.41,38c0-.08,0-7.16,0-7.24a1,1,0,0,0-1-.95,4.19,4.19,0,0,1-2.66-.49,4.67,4.67,0,0,1-1.93-3.72,1,1,0,0,0-1.61-.84A32.91,32.91,0,0,1,29.7,30.48a1,1,0,0,0,.15,2,33.26,33.26,0,0,0,7.23-1.77A34.57,34.57,0,0,0,44,27.31a5.77,5.77,0,0,0,5.36,4.54V38a11.61,11.61,0,1,1-23.22,0V30.8a1,1,0,0,0-2,0V38A13.67,13.67,0,0,0,31.88,50.3v.27a4.26,4.26,0,0,1-4.26,4.26,10.5,10.5,0,0,0-3.77.7L23.19,55a12.48,12.48,0,0,1-2.61-16.69A14.15,14.15,0,0,0,23,30.46V24.92A11.77,11.77,0,0,1,34.69,13.17h6.12A11.76,11.76,0,0,1,52.55,24.92v5.54a14,14,0,0,0,2.37,7.83,12.51,12.51,0,0,1-.1,14,1,1,0,0,0,1.68,1.16,14.53,14.53,0,0,0,.11-16.32,12,12,0,0,1-2-6.7V24.92A13.81,13.81,0,0,0,40.81,11.13H34.69A13.8,13.8,0,0,0,20.91,24.92v5.54a12.17,12.17,0,0,1-2,6.72,14.53,14.53,0,0,0,3,19.37,10.52,10.52,0,0,0-4.77,8.83v6a1,1,0,1,0,2,0v-6a8.49,8.49,0,0,1,8.5-8.5,6.36,6.36,0,0,0,2-.32l7.53,5.83a1,1,0,0,0,1.25,0l4.26-3.31a1,1,0,0,0-1.25-1.61Z"/></g></svg>