<svg id="Laag_1" data-name="Laag 1" xmlns="http://www.w3.org/2000/svg" viewBox="0 0 77 77"><defs><style>.cls-1{fill:#1d1d1b;fill-rule:evenodd;}</style></defs><path class="cls-1" d="M64.49,52A28,28,0,0,1,30,56.33a1.22,1.22,0,0,0-1.47.19L14,71.08c-2.91,2.9-7,3.59-9.54,1L4,71.65C1.41,69.08,2.1,65,5,62.12L19.59,47.53a1.2,1.2,0,0,0,.17-1.43,28,28,0,0,1,4.3-34.51A28.59,28.59,0,0,1,64.49,52ZM59.21,16.87a21.12,21.12,0,1,0,0,29.88A21.14,21.14,0,0,0,59.21,16.87Zm-8.72,4.71a12.68,12.68,0,0,0-16.61,6.73A2.95,2.95,0,1,1,28.45,26a18.59,18.59,0,0,1,24.34-9.87,3,3,0,0,1-2.3,5.44Z"/></svg>