<svg id="Laag_1" data-name="Laag 1" xmlns="http://www.w3.org/2000/svg" viewBox="0 0 77 77"><defs><style>.cls-1{fill:#059e9d;fill-rule:evenodd;}</style></defs><path class="cls-1" d="M38.5,1.48a37,37,0,1,0,37,37C75.52,18.06,60.37,1.48,38.5,1.48Zm15.26,8.57c.64-.3,3.24,1.06,5.43,3.36-1.48,5.49-4.94,4.84-4.94,4.84s-2.54-.06-2.2-2.2l2.63-1.77S53.57,11.45,53.76,10.05ZM29.84,48.48A27.14,27.14,0,0,1,28,52.6a6,6,0,0,1-1.82,2.48,5.57,5.57,0,0,0-1.32,1.82l-.15,2.79a12.72,12.72,0,0,0,.81,3.15c.49.82-1.77,5.73-1.77,5.73-1.43-.29-2.23-1.95-2.72-3.26s-1.16-2-1-3.51-1.29-2.26-1.77-3.09a6.89,6.89,0,0,1-1.16-2.8c0-.83-1.81-2-1.81-2s-3.3-1.49-3.79-2.14-1-3.47-1.16-4.62a18.64,18.64,0,0,1,.49-4.12s1.33-1,.5-1.82-1-3-1-3L8.89,36.62a10.2,10.2,0,0,1-1.31-2.48A4.73,4.73,0,0,1,7.74,32c.16-.83-.33-2.31-.33-3.14C13.57,13.75,23.9,10.23,23.9,10.23l.83,3.46a6.42,6.42,0,0,1-2.8.16,5.35,5.35,0,0,0-1.49-.33l-1.32,1.81a17.86,17.86,0,0,0-.66,1.82,3.09,3.09,0,0,0,.32,1.64s2.32.16,2.32-.49a1.45,1.45,0,0,0-.33-1l-.33-1.15s1.49-.83,5.44-.5,2.48,3.13,4.13,3.8-1.32,3-2,4.28-1.65-1.65-1.65-1.65,1-1.15-.66-1.49-2.74,3-1.91,2.82a1.56,1.56,0,0,1,1.58,1.7,8.94,8.94,0,0,1-1,2.58,9.57,9.57,0,0,1-2.62,3.15s-.84-.51-.35.48-.17,3.29-.17,4-2-1.16-2.3-2.81-2.27-.21-2.93,0a2.12,2.12,0,0,1-2.18-1.11c-.34-.82-3.31,1.65-4.14,2.14s-.48,1.82.83,1.15,2.47-.15,2.14,1.17-1.64.5-1.48,1.31,1.48,1.65,1.81,2.81,3.47.17,4.45-.33,3.8-1,4.13.33,3.47,1.81,4.62,2.14,3.46.49,4.78,1.81S30,47.66,29.84,48.48ZM37.26,9.89c-.17,1.65-2.8,3.79-2.47,4.46s0,3.48-2.31,1S27.86,12,28,10.38c0-.33,2.38-.85,2.42-1.42C34,5.71,39.54,6.38,40,7.15,39,8.78,37.43,8.24,37.26,9.89ZM67.11,39.31s1.27,1.87,3.08,1.75C69,54.85,57.49,63.71,57.49,63.71c-1.76-1.76-.88-3.29-.88-3.29l.5-2.65.27-4.45s0-4.61-4.4-2.42c-4.72,1.21-2.76,1.21-7.53,1.54s-4-9.75-4-9.75C41.46,27.6,53,39,53,39c6.61,4.4,7.48-3.64,7.48-3.64l4.84-1.75.44-2.2-.7-3.08-7-2.89a6.57,6.57,0,0,0,1.12,5.09s-.6,3.18-2.08,2.36l-4.08-2s-1.37-.59-3.57.74-5.93-.07-5.93-.07a4.81,4.81,0,0,1,2.62-3.36L48,26.88a10.59,10.59,0,0,1-.06-4c.44-1.76,1.21-.22,3-1.54s3,2.58,5.6,2.14,1.33-.88,3.09-1.76,3.07,1.76,3.07,1.76l3.52.44s-.56-4-.31-2.95c2.22,3.83,5.49,14,4.28,15.86l-1.33-.59h-4.4Z"/></svg>